<?xml version="1.0" standalone="no"?>
<!DOCTYPE svg PUBLIC "-//W3C//DTD SVG 20010904//EN"
 "http://www.w3.org/TR/2001/REC-SVG-20010904/DTD/svg10.dtd">
<svg version="1.0" xmlns="http://www.w3.org/2000/svg"
 width="700.000000pt" height="700.000000pt" viewBox="0 0 700.000000 700.000000"
 preserveAspectRatio="xMidYMid meet">
<metadata>
Created by potrace 1.14, written by Peter Selinger 2001-2017
</metadata>
<g transform="translate(0.000000,700.000000) scale(0.100000,-0.100000)"
fill="#000000" stroke="none">
<path d="M2399 6984 c-63 -19 -140 -90 -170 -156 -22 -48 -24 -66 -24 -203 0
-131 3 -156 21 -196 52 -111 138 -166 279 -177 l86 -7 -298 -465 c-180 -282
-326 -521 -369 -607 -123 -243 -201 -522 -224 -798 -8 -90 -10 -661 -8 -1845
l3 -1715 27 -97 c95 -346 350 -597 701 -691 82 -22 83 -22 1077 -22 918 0
1000 1 1064 18 355 91 618 346 714 695 l27 97 0 1790 c0 1984 4 1863 -65 2130
-80 307 -151 448 -530 1040 l-300 470 86 7 c140 11 226 66 278 177 18 40 21
65 21 196 0 137 -2 155 -24 203 -31 69 -106 137 -174 157 -74 22 -2127 21
-2198 -1z m352 -2945 c244 -24 428 -81 857 -265 505 -217 693 -270 990 -281
l162 -6 0 -1278 c0 -897 -3 -1294 -11 -1331 -32 -155 -163 -285 -317 -318 -30
-7 -372 -10 -962 -8 l-915 3 -67 32 c-126 59 -213 169 -238 298 -8 43 -10 485
-8 1595 l3 1534 40 8 c120 25 317 33 466 17z"/>
</g>
</svg>
